<?xml version="1.0" encoding="UTF-8"?>
<svg id="Capa_1" data-name="Capa 1" xmlns="http://www.w3.org/2000/svg" viewBox="0 0 47.78 10.29">
  <defs>
    <style>
      .cls-1 {
        fill: #9747ff;
      }
    </style>
  </defs>
  <g>
    <path class="cls-1" d="m2.05,6.15v4.1H0v-4.1c0-.54.1-1.07.31-1.57.21-.5.5-.94.89-1.33s.83-.68,1.33-.89c.5-.21,1.02-.31,1.57-.31s1.07.1,1.57.31c.5.21.94.5,1.33.89s.68.83.89,1.33c.21.5.31,1.03.31,1.57v4.1h-2.05v-4.1c0-.57-.2-1.05-.6-1.45-.4-.4-.88-.6-1.45-.6s-1.05.2-1.45.6c-.4.4-.6.88-.6,1.45Z"/>
    <path class="cls-1" d="m14.43,4.68c-.38-.38-.83-.58-1.35-.58-.57,0-1.05.2-1.45.6-.4.4-.6.88-.6,1.45s.2,1.05.6,1.45.88.6,1.45.6,1.05-.2,1.45-.6c.12-.12.23-.25.31-.39l1.75,1.05c-.17.29-.38.55-.62.79-.38.38-.83.68-1.33.89-.5.21-1.02.31-1.57.31s-1.07-.1-1.57-.31c-.5-.21-.94-.5-1.33-.89s-.68-.83-.89-1.33c-.21-.5-.31-1.02-.31-1.57s.1-1.07.31-1.57c.21-.5.5-.94.89-1.33s.83-.68,1.33-.89c.5-.21,1.02-.31,1.57-.31s1.07.1,1.57.31c.5.21.94.5,1.33.89s.68.83.89,1.33c.19.45.29.92.31,1.41l-4.6,1.4-.54-1.98,2.39-.74Z"/>
    <path class="cls-1" d="m20.11,10.25h-2.05V0h2.05v2.6c.15-.09.31-.17.48-.24.5-.21,1.02-.31,1.57-.31s1.07.1,1.57.31c.5.21.94.5,1.33.89s.68.83.89,1.33c.21.5.31,1.03.31,1.57v4.1h-2.05v-4.1c0-.57-.2-1.05-.6-1.45-.4-.4-.88-.6-1.45-.6s-1.05.2-1.45.6c-.4.4-.6.88-.6,1.45v4.1Z"/>
    <path class="cls-1" d="m29.64,6.15v4.1h-2.05v-4.1c0-.54.1-1.07.31-1.57.21-.5.5-.94.89-1.33s.83-.68,1.33-.89c.5-.21,1.02-.31,1.57-.31v2.05c-.57,0-1.05.2-1.45.6-.4.4-.6.88-.6,1.45Z"/>
    <path class="cls-1" d="m35.7,10.25c-.54,0-1.07-.1-1.57-.31-.5-.21-.94-.5-1.33-.89s-.68-.83-.89-1.33c-.21-.5-.31-1.02-.31-1.57s.1-1.07.31-1.57c.21-.5.5-.94.89-1.33s.83-.68,1.33-.89c.5-.21,1.02-.31,1.57-.31s1.07.1,1.57.31c.5.21.94.5,1.33.89s.68.83.89,1.33c.21.5.31,1.03.31,1.57s-.1,1.07-.31,1.57c-.21.5-.5.94-.89,1.33s-.83.68-1.33.89c-.5.21-1.02.31-1.57.31Zm0-2.05c.57,0,1.05-.2,1.45-.6s.6-.88.6-1.45-.2-1.05-.6-1.45c-.4-.4-.88-.6-1.45-.6s-1.05.2-1.45.6c-.4.4-.6.88-.6,1.45s.2,1.05.6,1.45.88.6,1.45.6Z"/>
  </g>
  <path class="cls-1" d="m40.31,7.81h2.5c.18.45.51.74,1.21.74s1.19-.29,1.19-.71c0-.5-.71-.64-1.59-.79-1.33-.22-3.14-.59-3.14-2.31,0-1.59,1.44-2.63,3.56-2.63s3.35,1.01,3.52,2.47h-2.37c-.17-.44-.46-.74-1.11-.74s-1.1.29-1.1.69c0,.52.75.66,1.66.81,1.44.24,3.13.59,3.13,2.24s-1.51,2.71-3.76,2.71-3.54-1.04-3.7-2.48Z"/>
</svg>